<?xml version="1.0" encoding="UTF-8" standalone="no"?>
<svg
   xmlns:dc="http://purl.org/dc/elements/1.1/"
   xmlns:cc="http://creativecommons.org/ns#"
   xmlns:rdf="http://www.w3.org/1999/02/22-rdf-syntax-ns#"
   xmlns:svg="http://www.w3.org/2000/svg"
   xmlns="http://www.w3.org/2000/svg"
   xmlns:sodipodi="http://sodipodi.sourceforge.net/DTD/sodipodi-0.dtd"
   xmlns:inkscape="http://www.inkscape.org/namespaces/inkscape"
   version="1.1"
   id="Layer_1"
   x="0px"
   y="0px"
   width="35px"
   height="50px"
   viewBox="0 0 35 50"
   enable-background="new 0 0 35 50"
   xml:space="preserve"
   sodipodi:docname="Virgool.svg"
   inkscape:version="1.0.2 (e86c870, 2021-01-15)"><metadata
   id="metadata15"><rdf:RDF><cc:Work
       rdf:about=""><dc:format>image/svg+xml</dc:format><dc:type
         rdf:resource="http://purl.org/dc/dcmitype/StillImage" /></cc:Work></rdf:RDF></metadata><defs
   id="defs13" /><sodipodi:namedview
   pagecolor="#ffffff"
   bordercolor="#666666"
   borderopacity="1"
   objecttolerance="10"
   gridtolerance="10"
   guidetolerance="10"
   inkscape:pageopacity="0"
   inkscape:pageshadow="2"
   inkscape:window-width="1024"
   inkscape:window-height="706"
   id="namedview11"
   showgrid="false"
   inkscape:zoom="9.92"
   inkscape:cx="17.5"
   inkscape:cy="25"
   inkscape:window-x="-8"
   inkscape:window-y="-8"
   inkscape:window-maximized="1"
   inkscape:current-layer="Layer_1" />
<path
   id="Shape"
   fill="#003962"
   d="M17.204,49.951c-2.665-1.826-5.28-3.619-7.977-5.461c1.628-2.286,3.24-4.507,4.77-6.645  c-1.661-0.691-3.372-1.185-4.835-2.089C3.388,32.221,0.28,27.105,0.773,20.23c0.51-7.138,4.326-12.155,10.938-14.54  C22.861,1.678,32.27,9.49,33.816,18.108c0.674,3.75,0.313,7.435-1.711,10.708c-2.039,3.305-4.31,6.479-6.547,9.654  c-2.564,3.618-5.213,7.188-7.812,10.772C17.599,49.441,17.451,49.639,17.204,49.951z"
   style="fill:#006680" />
<g
   id="Fill-1"
   transform="translate(113.070063, 101.070415) rotate(210.000000) translate(-113.070063, -101.070415) ">
	<g
   id="g4">
		<path
   id="path-2_2_"
   d="M245.008,140.886c-1.809,0-3.586,0-5.411,0c0.033-1.562,0.066-8.075,0.099-9.54    c-0.988,0.198-1.941,0.51-2.894,0.559c-3.783,0.197-6.826-1.2-8.767-4.523c-2.023-3.454-1.842-6.99,0.461-10.165    c3.881-5.378,10.707-4.737,14.128-1.25c1.497,1.513,2.5,3.339,2.582,5.493c0.099,2.171,0.05,4.342,0.017,6.53" />
	</g>
	<g
   id="g7">
		<path
   id="path-2_1_"
   fill="#FFFFFF"
   d="M245.287,140.722c-1.809,0-3.586,0-5.411,0c0.032-1.562,0.065-8.075,0.098-9.539    c-0.987,0.197-1.941,0.509-2.895,0.559c-3.783,0.198-6.825-1.201-8.766-4.523c-2.023-3.453-1.843-6.989,0.46-10.164    c3.882-5.378,10.707-4.737,14.128-1.25c1.497,1.513,2.5,3.339,2.583,5.494c0.099,2.171,0.049,4.342,0.017,6.53" />
	</g>
</g>
</svg>
